<svg width="132" height="101" viewBox="0 0 132 101" fill="none" xmlns="http://www.w3.org/2000/svg">
<g filter="url(#filter0_d_12_11)">
<path d="M68.6807 71.2207C68.6807 71.9228 68.6989 72.6658 68.7363 73.4492C68.7832 74.2225 68.8493 75.103 68.9336 76.0898L67.9639 76.2119C67.8983 74.9197 67.5655 74.0493 66.9658 73.6016C66.3662 73.1539 65.0263 72.9297 62.9463 72.9297C62.2155 72.9297 61.0771 72.9505 59.5313 72.9912H59.4463C59.4276 74.497 59.3998 76.1757 59.3623 78.0273C59.3248 79.869 59.3014 80.8922 59.292 81.0957H59.7559C60.2805 81.0957 60.9315 81.1002 61.709 81.1104C62.4867 81.1205 63.0168 81.126 63.2979 81.126C64.675 81.126 65.5841 80.9886 66.0244 80.7139C66.474 80.4391 66.7174 79.9302 66.7549 79.1875L67.6406 79.249C67.5657 80.012 67.5135 80.6431 67.4854 81.1416C67.4573 81.6299 67.4434 82.0829 67.4434 82.5C67.4434 82.8051 67.4487 83.1661 67.458 83.583C67.4768 84.0002 67.5002 84.4684 67.5283 84.9873L66.6006 85.0635V84.8047C66.6006 83.9706 66.371 83.4055 65.9121 83.1104C65.453 82.8051 64.3893 82.6524 62.7217 82.6523H59.292V88.5898C59.292 90.0545 59.4415 90.9804 59.7412 91.3672C60.041 91.7436 60.6504 91.9316 61.5684 91.9316H62.1172V93C61.4051 92.9593 60.7021 92.9295 60.0088 92.9092C59.3248 92.8888 58.6549 92.8779 57.999 92.8779C57.6711 92.8779 57.1697 92.8888 56.4951 92.9092C55.8299 92.9295 55.0756 92.9593 54.2324 93V92.0078C54.3073 92.018 54.3778 92.0289 54.4434 92.0391H54.7803C55.5298 92.0391 56.0355 91.7741 56.2979 91.2451C56.5696 90.7058 56.7061 89.5101 56.7061 87.6582C56.7061 87.3529 56.7008 86.8087 56.6914 86.0254C56.682 85.2419 56.6777 84.5957 56.6777 84.0869V79.9355C56.6777 79.3759 56.682 78.5009 56.6914 77.3105C56.7008 76.1101 56.7061 75.1943 56.7061 74.5635C56.7061 73.6986 56.5514 73.0975 56.2422 72.7617C55.9424 72.416 55.4129 72.2432 54.6543 72.2432H54.4287V71.2207C56.3683 71.2716 57.9384 71.3122 59.1377 71.3428C60.3462 71.3631 61.3674 71.373 62.2012 71.373C63.11 71.373 64.0893 71.3631 65.1387 71.3428C66.1975 71.3122 67.3783 71.2716 68.6807 71.2207ZM117.604 0C117.625 0.0237462 132.887 17.1553 125.711 23.6748L86.8106 59.0127L73.2256 46.6719L66.1582 53.709C84.6253 69.8601 104.294 87.5629 103.079 88.667C103.089 88.6891 103.985 90.6807 100.816 90.7217C99.1262 90.7425 80.1651 73.4208 62.7158 57.1377L30.4063 89.3174C28.8942 90.8233 26.3034 90.8768 24.7168 89.4355C23.1808 88.0399 23.1808 85.7775 24.7168 84.3818L58.7666 53.4482C48.5615 43.894 39.4028 35.2066 35.2773 31.2842C33.2837 32.7026 30.7543 33.7624 27.3789 34.6885C26.8698 34.8281 26.3185 34.697 25.9424 34.3555C25.7936 34.2203 25.6838 34.0629 25.6123 33.8955C25.4429 33.8431 25.2835 33.7565 25.1484 33.6338L4.35352 14.7441C3.88207 14.3157 3.88225 13.6209 4.35352 13.1924C4.82529 12.7638 5.59073 12.7638 6.0625 13.1924L26.6123 31.8604L29.46 29.2734L8.91016 10.6055C8.43839 10.1769 8.43839 9.48228 8.91016 9.05371C9.38193 8.62518 10.1464 8.62515 10.6182 9.05371L31.168 27.7217L34.0156 25.1348L13.4658 6.4668C12.9941 6.03823 12.9941 5.34361 13.4658 4.91504C13.9376 4.48647 14.7021 4.48647 15.1738 4.91504L35.7236 23.583L38.5713 20.9961L18.0215 2.32812C17.5498 1.89959 17.5498 1.20495 18.0215 0.776367C18.4932 0.347809 19.2577 0.347833 19.7295 0.776367L40.5244 19.666C40.658 19.7874 40.7517 19.931 40.8096 20.083C40.9909 20.1473 41.1612 20.245 41.3076 20.3779C41.6884 20.7239 41.8289 21.2338 41.6631 21.6992C40.5371 24.8572 39.3258 27.2414 37.6797 29.1182C42.0377 32.8373 51.6703 41.0848 62.2412 50.292L69.7266 43.4932L117.604 0ZM79.3232 11.0166H78.957C77.1676 11.0167 75.6462 12.3093 74.3936 14.8955C74.117 15.4821 73.8899 15.9359 73.7109 16.2559C69.1232 25.2819 66.1703 31.1552 64.8525 33.875C63.5349 36.5945 62.8435 38.1742 62.7783 38.6143H59.7764C59.7763 38.2942 59.0198 36.301 57.5068 32.6348C55.9939 28.9684 54.164 24.8153 52.0166 20.1758C51.8702 19.8425 51.6584 19.3691 51.3818 18.7559C49.0229 13.5695 46.9406 10.9766 45.1348 10.9766C44.9721 10.9766 44.8417 10.9828 44.7441 10.9961C44.6629 10.9961 44.5731 11.0033 44.4756 11.0166V9.75586C45.6957 9.80919 46.8514 9.84931 47.9414 9.87598C49.0311 9.90263 49.9908 9.91601 50.8203 9.91602C51.8615 9.91602 52.9194 9.90264 53.9932 9.87598C55.083 9.84931 56.1973 9.80918 57.3359 9.75586L57.3115 11.0166C55.9455 11.1099 55.0347 11.2562 54.5791 11.4561C54.1399 11.656 53.9199 12.0028 53.9199 12.4961C53.9199 12.8694 54.0014 13.3427 54.1641 13.916C54.343 14.4759 54.6516 15.256 55.0908 16.2559L62.4365 33.0947C66.3572 25.0287 68.8224 19.8025 69.8311 17.416C70.8559 15.0164 71.3681 13.443 71.3682 12.6963C71.3682 12.083 71.1645 11.6632 70.7578 11.4365C70.3674 11.2099 69.4561 11.0699 68.0244 11.0166V9.75586C69.0005 9.80919 69.9607 9.84931 70.9043 9.87598C71.8642 9.90264 72.7999 9.91602 73.7109 9.91602C74.4918 9.91601 75.3625 9.90264 76.3223 9.87598C77.2819 9.84931 78.2823 9.80918 79.3232 9.75586V11.0166ZM117.459 5.30469C116.83 4.73343 115.784 4.75705 115.123 5.35742C114.462 5.95789 114.437 6.90806 115.065 7.47949C115.694 8.05068 116.74 8.02719 117.401 7.42676C118.062 6.82623 118.088 5.87602 117.459 5.30469Z" fill="#E07B39"/>
</g>
<defs>
<filter id="filter0_d_12_11" x="0" y="0" width="131.63" height="101" filterUnits="userSpaceOnUse" color-interpolation-filters="sRGB">
<feFlood flood-opacity="0" result="BackgroundImageFix"/>
<feColorMatrix in="SourceAlpha" type="matrix" values="0 0 0 0 0 0 0 0 0 0 0 0 0 0 0 0 0 0 127 0" result="hardAlpha"/>
<feOffset dy="4"/>
<feGaussianBlur stdDeviation="2"/>
<feComposite in2="hardAlpha" operator="out"/>
<feColorMatrix type="matrix" values="0 0 0 0 0 0 0 0 0 0 0 0 0 0 0 0 0 0 0.25 0"/>
<feBlend mode="normal" in2="BackgroundImageFix" result="effect1_dropShadow_12_11"/>
<feBlend mode="normal" in="SourceGraphic" in2="effect1_dropShadow_12_11" result="shape"/>
</filter>
</defs>
</svg>
